<svg xmlns="http://www.w3.org/2000/svg" width="800" height="800" viewBox="0 0 24 24"><path d="M.221 16.268a15 15 0 0 0 1.789 1.9C2.008 18.111 2 18.057 2 18a5.03 5.03 0 0 1 3.233-4.678 1 1 0 0 0 .175-1.784A2.97 2.97 0 0 1 4 9a2.988 2.988 0 0 1 5.022-2.2 6 6 0 0 1 2.022-.715 4.994 4.994 0 1 0-7.913 6.085 7.07 7.07 0 0 0-2.91 4.098m23.558 0a7.07 7.07 0 0 0-2.91-4.1 4.994 4.994 0 1 0-7.913-6.086 6 6 0 0 1 2.022.715 2.993 2.993 0 1 1 3.614 4.74 1 1 0 0 0 .175 1.784A5.03 5.03 0 0 1 22 18c0 .057-.008.111-.01.167a15 15 0 0 0 1.789-1.899"/><path d="M18.954 20.284a7.05 7.05 0 0 0-3.085-5.114A4.96 4.96 0 0 0 17 12a5 5 0 1 0-8.869 3.17 7.05 7.05 0 0 0-3.085 5.114 15 15 0 0 0 1.968.849C7.012 21.088 7 21.046 7 21a5.03 5.03 0 0 1 3.233-4.678 1 1 0 0 0 .175-1.785A2.96 2.96 0 0 1 9 12a3 3 0 1 1 6 0 2.96 2.96 0 0 1-1.408 2.537 1 1 0 0 0 .175 1.785A5.03 5.03 0 0 1 17 21c0 .046-.012.088-.013.133a15 15 0 0 0 1.967-.849"/></svg>